# xmcd
#
# Track frame offsets:
#	225
#	18763
#	40648
#	55794
#	77852
#	79982
#	105496
#	125300
#	138374
#	165929
#	180271
#	207293
#
# Disc length: 2811 seconds
# Revision: 0
# Processed by: cddbd v1.5.2PL0 Copyright (c) Steve Scherf et al.
# Submitted via: dBpowerAMP V12.0
#
DISCID=870af80c
DTITLE=Helen Sheppard - Hello Tomorrow
DYEAR=1
DGENRE=Contemporary Pop
TTITLE0=Don't Say Goodbye
TTITLE1=Never Toll Late
TTITLE2=In Your Eyes
TTITLE3=Reeling
TTITLE4=All the Best Men
TTITLE5=Hello Tomorrow
TTITLE6=One in a Million
TTITLE7=You Don't Love Me
TTITLE8=Lazarus
TTITLE9=Three O'Clock
TTITLE10=Troubles Inside
TTITLE11=Walk Ten Miles
EXTD=
EXTT0=
EXTT1=
EXTT2=
EXTT3=
EXTT4=
EXTT5=
EXTT6=
EXTT7=
EXTT8=
EXTT9=
EXTT10=
EXTT11=
PLAYORDER=
